<svg xmlns="http://www.w3.org/2000/svg" width="400.11" height="197.505" viewBox="0 0 400.11 197.505">
  <g id="Zasób_1" data-name="Zasób 1" transform="translate(0 0)" opacity="0.65">
    <g id="Warstwa_1" data-name="Warstwa 1" transform="translate(0 0)">
      <rect id="Rectangle_8" data-name="Rectangle 8" width="88.335" height="55.961" transform="translate(32.517 168.268) rotate(-90)" fill="#f6f5f5"/>
      <rect id="Rectangle_9" data-name="Rectangle 9" width="88.335" height="55.961" transform="translate(98.843 182.041) rotate(-90)" fill="#f6f5f5"/>
      <rect id="Rectangle_10" data-name="Rectangle 10" width="122.886" height="55.961" transform="translate(194.777 171.181) rotate(-90)" fill="#f6f5f5"/>
      <rect id="Rectangle_11" data-name="Rectangle 11" width="5.551" height="45.843" transform="translate(199.834 48.3) rotate(-90)" fill="#f6f5f5"/>
      <rect id="Rectangle_12" data-name="Rectangle 12" width="115.391" height="30.312" transform="translate(255.168 197.505) rotate(-90)" fill="#f6f5f5"/>
      <rect id="Rectangle_13" data-name="Rectangle 13" width="100.264" height="30.312" transform="translate(291.04 197.505) rotate(-90)" fill="#f6f5f5"/>
      <rect id="Rectangle_14" data-name="Rectangle 14" width="5.551" height="24.832" transform="translate(257.91 82.114) rotate(-90)" fill="#f6f5f5"/>
      <rect id="Rectangle_15" data-name="Rectangle 15" width="400.11" height="29.238" transform="translate(0 168.268)" fill="#f0f0f0"/>
      <rect id="Rectangle_16" data-name="Rectangle 16" width="47.321" height="55.961" transform="translate(10.194 168.268) rotate(-90)" fill="#f0f0f0"/>
      <rect id="Rectangle_17" data-name="Rectangle 17" width="47.321" height="55.961" transform="translate(70.865 168.268) rotate(-90)" fill="#f0f0f0"/>
      <rect id="Rectangle_18" data-name="Rectangle 18" width="129.834" height="55.961" transform="translate(117.093 168.272) rotate(-90)" fill="#f0f0f0"/>
      <rect id="Rectangle_19" data-name="Rectangle 19" width="103.51" height="65.038" transform="translate(176.518 171.181) rotate(-90)" fill="#f0f0f0"/>
      <rect id="Rectangle_20" data-name="Rectangle 20" width="103.51" height="69.482" transform="translate(215.997 189.626) rotate(-90)" fill="#f0f0f0"/>
      <rect id="Rectangle_21" data-name="Rectangle 21" width="103.51" height="69.482" transform="translate(323.704 168.334) rotate(-90)" fill="#f0f0f0"/>
      <rect id="Rectangle_22" data-name="Rectangle 22" width="11.102" height="59.022" transform="translate(328.931 64.886) rotate(-90)" fill="#f0f0f0"/>
      <rect id="Rectangle_23" data-name="Rectangle 23" width="11.102" height="47.373" transform="translate(334.758 53.851) rotate(-90)" fill="#f0f0f0"/>
      <rect id="Rectangle_24" data-name="Rectangle 24" width="11.102" height="32.445" transform="translate(342.22 42.749) rotate(-90)" fill="#f0f0f0"/>
      <rect id="Rectangle_25" data-name="Rectangle 25" width="11.102" height="18.25" transform="translate(349.315 31.642) rotate(-90)" fill="#f0f0f0"/>
      <rect id="Rectangle_26" data-name="Rectangle 26" width="11.102" height="8.421" transform="translate(354.229 20.607) rotate(-90)" fill="#f0f0f0"/>
      <rect id="Rectangle_27" data-name="Rectangle 27" width="34.522" height="0.951" transform="translate(144.6 38.434) rotate(-90)" fill="#f0f0f0"/>
      <rect id="Rectangle_28" data-name="Rectangle 28" width="9.567" height="0.951" transform="translate(357.965 9.567) rotate(-90)" fill="#f0f0f0"/>
      <rect id="Rectangle_29" data-name="Rectangle 29" width="4.368" height="50.99" transform="translate(12.68 120.947) rotate(-90)" fill="#f0f0f0"/>
      <path id="Path_68" data-name="Path 68" d="M205.071,235.6v8.978H149.11l4.971-8.978Z" transform="translate(-78.245 -123.631)" fill="#f0f0f0"/>
      <path id="Path_69" data-name="Path 69" d="M612.38,200.638h30.312v-3.6Z" transform="translate(-321.345 -103.396)" fill="#f6f5f5"/>
    </g>
  </g>
</svg>
