<svg id="a873aaf1-02b4-4ad8-bfdb-11fe0aaf95ad" data-name="Warstwa 1" xmlns="http://www.w3.org/2000/svg" viewBox="0 0 520 510"><defs><style>.a5c01c8c-a32f-499f-be54-33aa37e1a10a{fill:#b3b3b3;}.b4a1ce2f-261a-4110-a031-eb5feac27f23{fill:#ccc;}.be7da498-1676-4054-b51a-3144a36cc9ab,.f5623adf-c64e-4e3a-b0fc-bd3da3100826{fill:#fff;}.f5623adf-c64e-4e3a-b0fc-bd3da3100826{opacity:0.26;}.e8b22bee-1c35-4a8d-9e69-b8598c43f35d{fill:#999;}</style></defs><title>image_placeholder</title><rect class="a5c01c8c-a32f-499f-be54-33aa37e1a10a" width="520" height="510"/><polygon class="b4a1ce2f-261a-4110-a031-eb5feac27f23" points="0 385 122.5 271.5 195.5 344.5 328.5 168.5 480.5 375.5 519.5 239.5 520 510 0 510 0 385"/><circle class="be7da498-1676-4054-b51a-3144a36cc9ab" cx="442.5" cy="81.5" r="49.5"/><path class="be7da498-1676-4054-b51a-3144a36cc9ab" d="M53.06,84.22H49.67v19.17l-8.66.72V59.59l10.56-.36q7.66,0,12,3.06t4.34,9.35a11.8,11.8,0,0,1-6.35,11.27l4,9.68,4,9.62L61,104.52Zm-.42-6.41a8.09,8.09,0,0,0,4.84-1.28q1.76-1.27,1.75-4.84,0-5.52-5.46-5.52h-4.1V77.81Z"/><path class="be7da498-1676-4054-b51a-3144a36cc9ab" d="M72.17,103.75V98.23L86.48,66.17H73.54l.71-6.94H96.57V65L82.62,96.8H97l-1.36,7Z"/><path class="be7da498-1676-4054-b51a-3144a36cc9ab" d="M102.56,103.75V59.23h22.62l-.71,6.94H111.29V76.8h9.38l-.06,7.48h-9.32V96.8h14.36l-.71,7Z"/><path class="be7da498-1676-4054-b51a-3144a36cc9ab" d="M145.72,59.23h9.14q8.77,0,13.12,5.58t4.33,16.86a35,35,0,0,1-1.63,11,17.45,17.45,0,0,1-5.2,8,13.43,13.43,0,0,1-9.08,3.06H145.72Zm9.91,37.57a6.29,6.29,0,0,0,6.26-3.88,23.28,23.28,0,0,0,1.75-9.59v-2a46.36,46.36,0,0,0-.5-7.27,11.91,11.91,0,0,0-2.32-5.52,6.43,6.43,0,0,0-5.43-2.35h-1V96.8Z"/><path class="be7da498-1676-4054-b51a-3144a36cc9ab" d="M178.6,103.75V59.23h22.62l-.71,6.94H187.33V76.8h9.38l-.06,7.48h-9.32V96.8h14.36l-.71,7Z"/><path class="be7da498-1676-4054-b51a-3144a36cc9ab" d="M209.91,101.58a17.2,17.2,0,0,1-5.43-8l7.36-3.44.72,1.18a24.47,24.47,0,0,0,3.29,4.63,5.2,5.2,0,0,0,4,1.67,3.53,3.53,0,0,0,2.76-1.49,5,5,0,0,0,1.21-3.26,5.66,5.66,0,0,0-.83-3,6.69,6.69,0,0,0-2.13-2.2L213,83a15.85,15.85,0,0,1-5.4-4.8,11.17,11.17,0,0,1-2-6.53,13.13,13.13,0,0,1,1.81-6.89,12.5,12.5,0,0,1,4.93-4.69,14.68,14.68,0,0,1,7-1.66,12.35,12.35,0,0,1,12.53,9l-7.36,3.33c-.16-.32-.5-1-1-2.14a5.8,5.8,0,0,0-1.87-2.41,4.74,4.74,0,0,0-2.7-.74,3.68,3.68,0,0,0-3,1.25,4.85,4.85,0,0,0-1,3.2,4.48,4.48,0,0,0,.8,2.59,6.14,6.14,0,0,0,1.93,1.81l7.18,4.21q8,4.52,8.37,11.87a14.57,14.57,0,0,1-1.87,7.45,13,13,0,0,1-5.1,5,14.68,14.68,0,0,1-7.21,1.78A14,14,0,0,1,209.91,101.58Z"/><path class="be7da498-1676-4054-b51a-3144a36cc9ab" d="M238.91,104.11V59.94l8.73-.71v44.16Z"/><path class="be7da498-1676-4054-b51a-3144a36cc9ab" d="M257.22,98q-3-6.58-3.05-16.68a40.26,40.26,0,0,1,1.45-10.86,20.18,20.18,0,0,1,4.69-8.64,10.93,10.93,0,0,1,8.28-3.41,11.85,11.85,0,0,1,7.21,2.11,12.5,12.5,0,0,1,4.28,5.58,20.39,20.39,0,0,1,1.39,7.68l-8.25.54L273,73.06a19.48,19.48,0,0,0-1.24-5.58,3.32,3.32,0,0,0-3.33-2.08c-2.06,0-3.51,1.66-4.36,5a46,46,0,0,0-1.28,11.43c0,3,.1,5.64.3,7.77a15.14,15.14,0,0,0,1.54,5.61,4.1,4.1,0,0,0,3.86,2.41c1.47,0,2.62-.91,3.47-2.73a15.66,15.66,0,0,0,1.28-6.71h-4.39l.71-6.65h12v21.9l-3.32.36-2-8.25A23.52,23.52,0,0,1,275,99.65a8.82,8.82,0,0,1-2.76,3.39,8.38,8.38,0,0,1-5.34,1.54Q260.29,104.58,257.22,98Z"/><path class="be7da498-1676-4054-b51a-3144a36cc9ab" d="M309.55,104.11l-13-27.84v27.12l-7.78.36V59.59l9.09-.36L309.37,85.7V59.94l7.36-.71v44.16Z"/><circle class="f5623adf-c64e-4e3a-b0fc-bd3da3100826" cx="442.5" cy="81.5" r="70.5"/><circle class="f5623adf-c64e-4e3a-b0fc-bd3da3100826" cx="442.5" cy="81.5" r="59.5"/><polygon class="e8b22bee-1c35-4a8d-9e69-b8598c43f35d" points="480 376 512 312 520 350 520 239 480 376"/><polygon class="e8b22bee-1c35-4a8d-9e69-b8598c43f35d" points="191.56 341.56 195 344 123 272 77 410 133 300 153.94 314.86 140 375 166 334 228 378 191.56 341.56"/><polygon class="e8b22bee-1c35-4a8d-9e69-b8598c43f35d" points="440 320 329 168 227 303 297 248 314 239 292 347 348 237 393.64 269.39 440 320"/><path class="b4a1ce2f-261a-4110-a031-eb5feac27f23" d="M100.08,215.27v-61l12.06-1v61Z"/><path class="b4a1ce2f-261a-4110-a031-eb5feac27f23" d="M164.79,215.27V169.09l-11.48,45.68h-7.38l-12.39-45.84v45.35l-9.92.49V153.84l17.63-.49,10.17,38.05,9.76-36.66,16.08-1v60.52Z"/><path class="b4a1ce2f-261a-4110-a031-eb5feac27f23" d="M190.5,206.82q-4.22-9.1-4.22-23a55.76,55.76,0,0,1,2-15,27.89,27.89,0,0,1,6.48-11.93,15.07,15.07,0,0,1,11.44-4.71,16.41,16.41,0,0,1,10,2.91,17.38,17.38,0,0,1,5.91,7.71A28.32,28.32,0,0,1,224,173.36l-11.4.73-.25-1.72a27.14,27.14,0,0,0-1.72-7.71,4.56,4.56,0,0,0-4.6-2.87q-4.26,0-6,6.85a63.42,63.42,0,0,0-1.77,15.79q0,6.31.41,10.74a21,21,0,0,0,2.14,7.75,5.62,5.62,0,0,0,5.33,3.32c2,0,3.62-1.25,4.79-3.77a21.71,21.71,0,0,0,1.77-9.27h-6.07l1-9.18h16.65v30.26l-4.59.49-2.79-11.4a32.25,32.25,0,0,1-1.85,5.74,12.12,12.12,0,0,1-3.81,4.68,11.61,11.61,0,0,1-7.38,2.13Q194.72,215.92,190.5,206.82Z"/><polygon class="e8b22bee-1c35-4a8d-9e69-b8598c43f35d" points="331 510 309.94 482.4 340.56 501.58 278.76 438.17 382.93 511.07 331 510"/><polygon class="e8b22bee-1c35-4a8d-9e69-b8598c43f35d" points="515.91 481.31 505.74 448.12 520 464 491.85 395.81 539 464 515.91 481.31"/></svg>