<svg xmlns="http://www.w3.org/2000/svg" width="22.481" height="22.488" viewBox="0 0 22.481 22.488">
  <g id="settings" transform="translate(22.481) rotate(90)">
    <g id="Warstwa_1" data-name="Warstwa 1" transform="translate(0 0)">
      <path id="Path_64" data-name="Path 64" d="M21.32,8.876,19.744,8.61A8.8,8.8,0,0,0,19.1,7.08l.931-1.3a1.385,1.385,0,0,0-.149-1.79l-1.391-1.4A1.378,1.378,0,0,0,16.7,2.445l-1.3.928a9.009,9.009,0,0,0-1.586-.649l-.263-1.557A1.388,1.388,0,0,0,12.181,0H10.206A1.388,1.388,0,0,0,8.834,1.161l-.272,1.6a8.484,8.484,0,0,0-1.524.649l-1.3-.931a1.388,1.388,0,0,0-.808-.256,1.372,1.372,0,0,0-.973.409L2.552,4.018A1.388,1.388,0,0,0,2.4,5.805l.94,1.33a8.607,8.607,0,0,0-.626,1.524l-1.557.266A1.385,1.385,0,0,0,0,10.294v1.978A1.388,1.388,0,0,0,1.161,13.64l1.6.272a8.614,8.614,0,0,0,.649,1.527l-.924,1.3a1.385,1.385,0,0,0,.149,1.79l1.391,1.385a1.385,1.385,0,0,0,.973.409,1.359,1.359,0,0,0,.8-.259l1.339-.928a8.717,8.717,0,0,0,1.485.61l.263,1.576a1.385,1.385,0,0,0,1.369,1.161h1.982A1.388,1.388,0,0,0,13.6,21.32l.266-1.576A9.048,9.048,0,0,0,15.4,19.1l1.3.928a1.378,1.378,0,0,0,.808.259h0a1.391,1.391,0,0,0,.973-.409l1.4-1.388a1.391,1.391,0,0,0,.149-1.79L19.1,15.4a8.958,8.958,0,0,0,.649-1.531l1.576-.263a1.388,1.388,0,0,0,1.161-1.372V10.248A1.372,1.372,0,0,0,21.32,8.876Zm-.107,3.347a.123.123,0,0,1-.1.123l-1.972.324a.649.649,0,0,0-.506.464,7.524,7.524,0,0,1-.817,1.969.649.649,0,0,0,.023.694l1.158,1.622a.126.126,0,0,1,0,.159l-1.4,1.4a.114.114,0,0,1-.088.036.1.1,0,0,1-.071-.023l-1.622-1.158a.649.649,0,0,0-.691-.029,7.459,7.459,0,0,1-1.965.817.629.629,0,0,0-.48.512l-.324,1.972a.123.123,0,0,1-.123.1H10.248a.123.123,0,0,1-.123-.1L9.8,19.134a.629.629,0,0,0-.467-.506,7.874,7.874,0,0,1-1.926-.791.623.623,0,0,0-.324-.084.61.61,0,0,0-.366.117L5.072,19.037A.117.117,0,0,1,5,19.06a.123.123,0,0,1-.088-.036l-1.4-1.4a.133.133,0,0,1,0-.162L4.67,15.842a.649.649,0,0,0,.029-.694,7.459,7.459,0,0,1-.827-1.962.649.649,0,0,0-.506-.467L1.382,12.4a.123.123,0,0,1-.1-.12V10.3a.117.117,0,0,1,.1-.12l1.946-.324a.649.649,0,0,0,.512-.467,7.459,7.459,0,0,1,.8-1.972.629.629,0,0,0-.036-.688L3.441,5.085a.133.133,0,0,1,0-.162L4.865,3.515a.114.114,0,0,1,.088-.036.1.1,0,0,1,.071.023L6.645,4.657a.649.649,0,0,0,.694.029A7.508,7.508,0,0,1,9.3,3.859a.649.649,0,0,0,.467-.509l.324-1.985a.123.123,0,0,1,.123-.1h1.975a.123.123,0,0,1,.123.1l.324,1.946a.649.649,0,0,0,.47.512,7.68,7.68,0,0,1,2.014.824.649.649,0,0,0,.688-.026l1.622-1.164a.12.12,0,0,1,.068-.026.133.133,0,0,1,.091.039l1.4,1.4a.133.133,0,0,1,0,.162L17.827,6.652a.649.649,0,0,0-.029.691,7.459,7.459,0,0,1,.817,1.965.619.619,0,0,0,.519.483l1.972.324a.123.123,0,0,1,.1.123v1.975Z" fill="#fff"/>
      <path id="Path_65" data-name="Path 65" d="M4.865,0A4.865,4.865,0,1,0,9.729,4.865,4.865,4.865,0,0,0,4.865,0Zm0,8.432A3.567,3.567,0,1,1,7.4,7.393,3.567,3.567,0,0,1,4.865,8.432Z" transform="translate(6.373 6.382)" fill="#fff"/>
    </g>
  </g>
</svg>
