<svg id="Zasób_1" data-name="Zasób 1" xmlns="http://www.w3.org/2000/svg" width="133.73" height="73.849" viewBox="0 0 133.73 73.849">
  <g id="logo">
    <path id="Path_1" data-name="Path 1" d="M52.182,16.54l-.091.078-3.515,2.955-.026,3.762h7.212V19.573l-3.58-3.02Z" transform="translate(14.663 4.991)" fill="#fff"/>
    <path id="Path_2" data-name="Path 2" d="M39.1,33.52l.208.312.221.325h4.634a21.948,21.948,0,0,1,7.2.989,23.431,23.431,0,0,1,3.593,1.862h0l.338.2h.091V30.6H56v6.587h.091l.469-.26a25.8,25.8,0,0,1,3.319-1.653,24.083,24.083,0,0,1,7.811-1.054H71.36l.156-.2,2.968-3.905h0V.351H63.315a5.78,5.78,0,0,0-3.424,1.393V0h-8.37V1.653a5.506,5.506,0,0,0-3.788-1.3H36.85V30.058h0C37.579,31.242,38.347,32.4,39.1,33.52ZM55.83,3.8s2.161-1.3,2.929-1.731V5.545C57.873,5.012,56.858,4.426,55.83,3.8ZM57.457,6.86H53.968l1.744-2.955Zm0-6.105L55.712,3.684C55.166,2.8,54.606,1.862,53.968.755Zm-4.817,1.3c1.041.625,2,1.2,2.942,1.731L52.666,5.545ZM37.527,1.028H47.941A5.207,5.207,0,0,1,51.521,2.6v4.5h0l4.192,1.77h0l4.048-1.77h0V2.6A6.17,6.17,0,0,1,63.08,1.028H73.937V29.472c-1.041.078-2.109.13-3.15.182h0a45.848,45.848,0,0,0-7.576.768,15.27,15.27,0,0,0-6.639,3.111v-3.45h-1.64V33.52a18.225,18.225,0,0,0-8.2-3.476,52.512,52.512,0,0,0-9.2-.586Z" transform="translate(11.133)" fill="#fff"/>
    <path id="Path_3" data-name="Path 3" d="M56.477,7.94H48.12V26.711h8.357Zm-7.811,8.5,1.3-1v4.621l-1.3,1.12Zm7.186,9.49H48.68V22.168l3.515-2.955.091-.078h0l3.58,3.02Zm-5.285-6.366V15l1.367-1.041v4.478Zm1.953-1.224V13.928L54,15.061V19.6Zm3.319,2.825-1.3-1.054v-4.6l1.3.963Zm0-5.428-3.593-2.76-3.593,2.734V8.526h7.186Z" transform="translate(14.534 2.396)" fill="#fff"/>
    <path id="Path_4" data-name="Path 4" d="M58.014,12.377c-.963,2.109-1.953,4.283-2.6,5.728h0v7.342H67.126V23.22l-.156-.091C65,22.1,62.882,20.981,60.656,19.784a19.435,19.435,0,0,0,3.619-4.973h0c.273-.547.534-1.093.755-1.666a18.576,18.576,0,0,0,1.3-9.008V3.85H55.41V6.219h5.376c-.7,1.575-1.718,3.8-2.6,5.806Zm6.2-7.941h1.458a18.1,18.1,0,0,1-1.237,8.487c-.078.156-.143.325-.221.495ZM56,18.273c.286-.651.651-1.471,1.054-2.343v6.144c-.417.325-.781.612-1.054.807Zm10.492,5.3v1.3H56v-1.3c.221-.169.872-.651,1.614-1.237h0l.677-.547c.846-.7,1.536-1.3,1.835-1.6C62.374,21.411,64.509,22.543,66.488,23.572ZM62.023,4.839l.182-.4h1.419V14.655a19.368,19.368,0,0,1-1.6,2.6ZM56,5.633v-1.2h5.559l-.521,1.2Zm3.827,4.153c.612-1.3,1.185-2.6,1.614-3.606V17.987A18.47,18.47,0,0,1,59.9,19.666h-.078ZM58.7,12.259l.534-1.185v9.112l-1.3,1.133-.3.234V14.629c.3-.664.6-1.3.911-2.018Z" transform="translate(16.733 1.162)" fill="#fff"/>
    <path id="Path_5" data-name="Path 5" d="M49.813,18.162h0c-.638-1.445-1.614-3.619-2.6-5.728l-.13-.4L45.66,8.946a3.307,3.307,0,0,1,.521-1.432,2.6,2.6,0,0,1,1.159-.976A6.509,6.509,0,0,1,49.526,6.2h.3V3.83h-10.8v.286a18.719,18.719,0,0,0,1.3,9.008,16.649,16.649,0,0,0,4.009,6.209h0a6.991,6.991,0,0,1-2.46,2.825,11.443,11.443,0,0,1-3.515,1.185H38.11v2.122H49.826ZM48.16,15.9l1.067,2.382V22.9l-1.067-.82Zm-2.187-4.843.547,1.211.156.351.9,1.979v7.016l-.273-.221c-.417-.351-.9-.794-1.3-1.2ZM41,13.411c-.078-.156-.143-.325-.208-.482a18.094,18.094,0,0,1-1.3-8.487h1.445Zm2.174-8.592V17.277a15.308,15.308,0,0,1-1.6-2.6V4.442H43Zm6.04-.378V5.626A5.819,5.819,0,0,0,47.079,6a3.189,3.189,0,0,0-1.406,1.172,3.515,3.515,0,0,0-.443.885c-.378-.833-.716-1.614-1-2.252l-.6-1.3ZM43.773,17.993V6.16c.43.976,1,2.265,1.6,3.593v9.919l-.508-.508C44.476,18.748,44.111,18.371,43.773,17.993Zm5.454,6.886H38.735V23.851a12.809,12.809,0,0,0,3.45-1.211,7.238,7.238,0,0,0,2.6-2.851c.547.521,1.445,1.393,2.187,2l.651.534h0c.716.573,1.367,1.054,1.614,1.237Z" transform="translate(11.513 1.156)" fill="#fff"/>
    <path id="Path_6" data-name="Path 6" d="M23.295,35.729s.078.273.2.651l1.054,3.593a1.627,1.627,0,0,0,.729.911,4.361,4.361,0,0,0,1.015.391l.963-3.671c.13.378.312,1,.573,1.888a2.447,2.447,0,0,0,.755,1.3,3.086,3.086,0,0,0,.456.247,3.908,3.908,0,0,0,.651.234L31.587,35H30.025a1.38,1.38,0,0,1,.234.351.846.846,0,0,1,.078.378.69.69,0,0,1,0,.182,1.12,1.12,0,0,1,0,.221l-.911,3.085c-.742-2.6-1.12-3.97-1.12-4L28.267,35H26.3a.872.872,0,0,1,.3.43,1.952,1.952,0,0,1,.13.677s-.078.325-.221.885l-.325,1.523c-.078.26-.143.521-.2.768h0l-.937-3.515L24.818,35H22.8A1.471,1.471,0,0,1,23.295,35.729Z" transform="translate(6.893 10.562)" fill="#fff"/>
    <path id="Path_7" data-name="Path 7" d="M30.2,35.716l1.406,2.6v1.888a1.3,1.3,0,0,1-.091.508.6.6,0,0,1-.3.365h2.538a1.133,1.133,0,0,1-.364-.6,2.3,2.3,0,0,1,0-.586V38.332L35.016,35H33.337a.508.508,0,0,1,.208.2.6.6,0,0,1,0,.273.7.7,0,0,1,0,.26,3.281,3.281,0,0,1-.13.378L32.881,37.2,31.8,35H29.64a.872.872,0,0,1,.286.234A1.757,1.757,0,0,1,30.2,35.716Z" transform="translate(8.957 10.562)" fill="#fff"/>
    <path id="Path_8" data-name="Path 8" d="M35.726,35.886h.82L33.76,41.093h5.012l.508-1.419a3.814,3.814,0,0,1-.937.456,3.293,3.293,0,0,1-.911.117H36.194l2.734-5.207H34.671l-.495,1.3A3.359,3.359,0,0,1,34.945,36a2.708,2.708,0,0,1,.781-.117Z" transform="translate(10.2 10.574)" fill="#fff"/>
    <path id="Path_9" data-name="Path 9" d="M36.208,35.056a.807.807,0,0,0,.612-.273.885.885,0,0,0,0-1.3.82.82,0,0,0-.612-.26.833.833,0,0,0-.638.26.859.859,0,0,0-.26.625.911.911,0,0,0,.26.638.885.885,0,0,0,.638.312Z" transform="translate(10.668 10.024)" fill="#fff"/>
    <path id="Path_10" data-name="Path 10" d="M40.84,40.228a1.3,1.3,0,0,1-.677.143,2.994,2.994,0,0,1-1.028-.2,2.786,2.786,0,0,1-.924-.534l.3,1.3a4.5,4.5,0,0,0,.833.247,4.738,4.738,0,0,0,.963.091,3.2,3.2,0,0,0,1.653-.391,1.783,1.783,0,0,0,.9-1.432v-.2a1.627,1.627,0,0,0-.3-.963,3.254,3.254,0,0,0-1.3-.95l-.6-.247c-.43-.2-.651-.417-.651-.664a.742.742,0,0,1,.82-.612,2.226,2.226,0,0,1,.612.1,3.645,3.645,0,0,1,.69.325V35.164a3.541,3.541,0,0,0-.82-.221,5.935,5.935,0,0,0-.7,0,2.9,2.9,0,0,0-1.64.443,1.523,1.523,0,0,0-.7,1.211,1.888,1.888,0,0,0,.4,1.3,3.124,3.124,0,0,0,1.185.807,6.275,6.275,0,0,1,.82.43.833.833,0,0,1,.417.677A.612.612,0,0,1,40.84,40.228Z" transform="translate(11.543 10.541)" fill="#fff"/>
    <path id="Path_11" data-name="Path 11" d="M46.922,41.145l.508-1.471a3.983,3.983,0,0,1-.924.456,3.385,3.385,0,0,1-.924.117H44.344l2.747-5.207h-4.27l-.495,1.3A3.541,3.541,0,0,1,43.082,36a2.864,2.864,0,0,1,.794-.117h.82L41.91,41.093Z" transform="translate(12.66 10.574)" fill="#fff"/>
    <path id="Path_12" data-name="Path 12" d="M52.79,41.118a2.447,2.447,0,0,1-.443-.508,3.5,3.5,0,0,1-.312-.716L50.225,35H47.96a.69.69,0,0,1,.26.247.56.56,0,0,1,.078.286,1.107,1.107,0,0,1,0,.325,1.782,1.782,0,0,0-.065.234l-1.3,3.619c-.117.351-.208.6-.26.729a1.822,1.822,0,0,1-.482.625H48.1a1.211,1.211,0,0,1-.26-.247.4.4,0,0,1-.091-.26c0-.065,0-.156,0-.247a.357.357,0,0,1,.078-.273l.273-.781h1.849l.286.885a.651.651,0,0,1,.065.2.858.858,0,0,1,0,.2.625.625,0,0,1-.378.534h2.812Zm-4.374-2.682.625-1.862.651,1.862Z" transform="translate(13.951 10.562)" fill="#fff"/>
    <path id="Path_13" data-name="Path 13" d="M57.727,39.259a1.627,1.627,0,0,0-.3-.963,3.254,3.254,0,0,0-1.3-.95l-.547-.247c-.43-.2-.651-.417-.651-.664a.742.742,0,0,1,.82-.612,2.227,2.227,0,0,1,.612.1,3.646,3.646,0,0,1,.69.325V35.159A3.54,3.54,0,0,0,56.23,35a5.933,5.933,0,0,0-.7,0,2.9,2.9,0,0,0-1.64.443,1.523,1.523,0,0,0-.7,1.211,1.888,1.888,0,0,0,.4,1.3,3.124,3.124,0,0,0,1.185.807,6.275,6.275,0,0,1,.82.43.833.833,0,0,1,.417.677.612.612,0,0,1-.3.469,1.3,1.3,0,0,1-.677.143,2.994,2.994,0,0,1-1.028-.2,2.785,2.785,0,0,1-.924-.534l.3,1.3a4.5,4.5,0,0,0,.833.247,4.738,4.738,0,0,0,.963.091A3.2,3.2,0,0,0,56.829,41a1.783,1.783,0,0,0,.9-1.432Z" transform="translate(16.03 10.559)" fill="#fff"/>
    <path id="Path_14" data-name="Path 14" d="M61.792,41.145l.482-1.471a3.984,3.984,0,0,1-.924.456,3.385,3.385,0,0,1-.924.117H59.188l2.747-5.207H57.691l-.495,1.3A3.541,3.541,0,0,1,57.952,36a2.864,2.864,0,0,1,.794-.117h.82L56.78,41.093Z" transform="translate(17.147 10.574)" fill="#fff"/>
    <path id="Path_15" data-name="Path 15" d="M63.824,41.118a.612.612,0,0,1-.3-.325,1.211,1.211,0,0,1-.1-.508V38.437L64.514,40.3a1.549,1.549,0,0,0,.7.716,5.207,5.207,0,0,0,1.5.143H67.3a2.032,2.032,0,0,1-.456-.482l-.234-.391-1.783-2.76L66.936,35H64.645a.664.664,0,0,1,.286.234.52.52,0,0,1,.078.286.794.794,0,0,1-.156.43l-.247.312-1.185,1.484V35.885a1.3,1.3,0,0,1,.1-.469.69.69,0,0,1,.3-.391L61.312,35a.742.742,0,0,1,.338.43,2.291,2.291,0,0,1,0,.6v4.2a1.47,1.47,0,0,1-.078.469.716.716,0,0,1-.312.364h2.512Z" transform="translate(18.499 10.562)" fill="#fff"/>
    <path id="Path_16" data-name="Path 16" d="M65.67,38.03v.078a3.046,3.046,0,0,0,.924,2.239,3.476,3.476,0,0,0,2.6.937,3.307,3.307,0,0,0,2.617-1.067,3.059,3.059,0,0,0,.755-2.083h0a3.046,3.046,0,0,0-.885-2.252,3.489,3.489,0,0,0-2.525-.911,3.71,3.71,0,0,0-2.512.872,2.825,2.825,0,0,0-.976,2.2Zm1.8-.182a2.226,2.226,0,0,1,.456-1.445,1.445,1.445,0,0,1,1.159-.573,1.393,1.393,0,0,1,1.3.911,3.645,3.645,0,0,1,.351,1.679,2.187,2.187,0,0,1-.391,1.367,1.38,1.38,0,0,1-1.185.547,1.445,1.445,0,0,1-1.3-.768,2.981,2.981,0,0,1-.43-1.6Z" transform="translate(19.829 10.552)" fill="#fff"/>
    <path id="Path_17" data-name="Path 17" d="M71.614,40.709a.781.781,0,0,1-.338.443h4.061l.351-1.3a2.3,2.3,0,0,1-.508.26,2.421,2.421,0,0,1-.872.13,3.072,3.072,0,0,1-.482,0,1.3,1.3,0,0,1-.43-.13V38.444l.937-.4v-.885l-.95.4V35.944a1.419,1.419,0,0,1,0-.443.846.846,0,0,1,.325-.482h-2.5a.677.677,0,0,1,.286.312,1.042,1.042,0,0,1,.117.534v2.4l-.4.156v.9l.4-.156v.807a3.267,3.267,0,0,1,0,.742Z" transform="translate(21.501 10.568)" fill="#fff"/>
    <path id="Path_18" data-name="Path 18" d="M76.741,41.118a1.21,1.21,0,0,1-.26-.247.469.469,0,0,1-.078-.26.962.962,0,0,1,0-.247l.091-.273.26-.781H78.6l.351.9.065.2v.2a.6.6,0,0,1-.378.534h2.825a2.6,2.6,0,0,1-.456-.508,3.5,3.5,0,0,1-.312-.716L78.875,35H76.61a.859.859,0,0,1,.273.247.7.7,0,0,1,0,.286,1.106,1.106,0,0,1,0,.325q0,.2,0,.234l-1.3,3.619a6.651,6.651,0,0,1-.273.729,1.965,1.965,0,0,1-.469.625h1.9Zm.911-4.543.651,1.862H77Z" transform="translate(22.597 10.562)" fill="#fff"/>
    <path id="Path_19" data-name="Path 19" d="M2.164,43.55a.859.859,0,0,1,.325-.43H0a.937.937,0,0,1,.325.43,3.71,3.71,0,0,1,0,.794v3.723a3.905,3.905,0,0,1,0,.69.937.937,0,0,1-.338.482H2.476a.846.846,0,0,1-.312-.377,2.33,2.33,0,0,1-.065-.69V44.266A3.137,3.137,0,0,1,2.164,43.55Z" transform="translate(0.01 13.012)" fill="#fff"/>
    <path id="Path_20" data-name="Path 20" d="M6.6,43.133a1.3,1.3,0,0,1,.351.625,2.239,2.239,0,0,1,0,.586v2.525L4.15,43.12H2.21a1.914,1.914,0,0,1,.43.625,2.213,2.213,0,0,1,.1.846v3.58a1.861,1.861,0,0,1-.1.664.95.95,0,0,1-.312.43H4.137a1.054,1.054,0,0,1-.312-.443,1.588,1.588,0,0,1-.1-.651V45.437h0L5.842,48.3a2.968,2.968,0,0,0,1.146.885,2.3,2.3,0,0,0,.885.26h0V44.266a1.875,1.875,0,0,1,.1-.6,1.3,1.3,0,0,1,.469-.547H6.6Z" transform="translate(0.68 13.012)" fill="#fff"/>
    <path id="Path_21" data-name="Path 21" d="M10.727,43.162H7.29a1.015,1.015,0,0,1,.286.338,1.3,1.3,0,0,1,.091.547V48.33a2.031,2.031,0,0,1,0,.456.781.781,0,0,1-.338.443H9.815a1.133,1.133,0,0,1-.378-.651,3.229,3.229,0,0,1,0-.586V46.508h.325a1.171,1.171,0,0,1,.508.091.443.443,0,0,1,.2.26h0V45.57h0a.26.26,0,0,1-.143,0H9.386v-1.5h.664a1.38,1.38,0,0,1,.43,0,.677.677,0,0,1,.469.338v-1.3h0Z" transform="translate(2.213 13.009)" fill="#fff"/>
    <path id="Path_22" data-name="Path 22" d="M17.319,46.174a3.02,3.02,0,0,0-.924-2.252,3.489,3.489,0,0,0-2.525-.911,3.658,3.658,0,0,0-2.512.872,2.825,2.825,0,0,0-.976,2.2v.143a2.994,2.994,0,0,0,.924,2.226,3.411,3.411,0,0,0,2.525.95A3.319,3.319,0,0,0,16.524,48.3a3.124,3.124,0,0,0,.755-2.083Zm-2.226,1.731a1.38,1.38,0,0,1-1.185.547,1.445,1.445,0,0,1-1.3-.768,2.981,2.981,0,0,1-.443-1.6v-.13a2.226,2.226,0,0,1,.469-1.432,1.432,1.432,0,0,1,2.473.338,3.645,3.645,0,0,1,.351,1.679,2.187,2.187,0,0,1-.364,1.367Z" transform="translate(3.145 12.978)" fill="#fff"/>
    <path id="Path_23" data-name="Path 23" d="M20.934,48.263l-1.2-2.031a1.979,1.979,0,0,0,.911-.794,1.393,1.393,0,0,0,.182-.677,1.536,1.536,0,0,0-.521-1.224,1.927,1.927,0,0,0-1.3-.417H16a.729.729,0,0,1,.312.391,2.421,2.421,0,0,1,.065.612v4.218a1.484,1.484,0,0,1-.078.508.6.6,0,0,1-.3.351h2.5a.768.768,0,0,1-.3-.312,1.3,1.3,0,0,1-.1-.56V46.622L19.2,48.705a1.067,1.067,0,0,0,.391.456,1.015,1.015,0,0,0,.56.13h.521l1.041-.078a3.189,3.189,0,0,1-.482-.521A3.959,3.959,0,0,0,20.934,48.263Zm-2.109-2.525a1.159,1.159,0,0,1-.729.391V44.006h.078a.9.9,0,0,1,.716.3,1.041,1.041,0,0,1,.221.69A1.107,1.107,0,0,1,18.825,45.737Z" transform="translate(4.841 13.011)" fill="#fff"/>
    <path id="Path_24" data-name="Path 24" d="M25.952,45.285l.3,2.994v.351a.7.7,0,0,1-.065.273,1.055,1.055,0,0,1-.234.3H28.4a1.185,1.185,0,0,1-.312-.482,2.265,2.265,0,0,1-.156-.664l-.469-4.218a.586.586,0,0,0,0-.169.69.69,0,0,1,.078-.273.964.964,0,0,1,.26-.247H25.6l-1.093,3.606L23.115,43.15H20.98a.924.924,0,0,1,.273.365.95.95,0,0,1,.078.391v.221l-.456,3.983a2.6,2.6,0,0,1-.117.638,1.055,1.055,0,0,1-.338.482h1.809a.651.651,0,0,1-.286-.273.794.794,0,0,1-.1-.456l.3-3.189h0L23.167,48.1a1.927,1.927,0,0,0,.378.677,3.176,3.176,0,0,0,1.133.612l1.2-4.075Z" transform="translate(6.175 13.021)" fill="#fff"/>
    <path id="Path_25" data-name="Path 25" d="M30.578,49.212H33.4a3.059,3.059,0,0,1-.456-.508,3.5,3.5,0,0,1-.312-.716l-1.8-4.869H28.56a1.055,1.055,0,0,1,.273.26.56.56,0,0,1,.078.286,1.836,1.836,0,0,1,0,.325,2.214,2.214,0,0,1-.078.234l-1.3,3.619a6.154,6.154,0,0,1-.273.716,1.692,1.692,0,0,1-.469.638h1.9a1.615,1.615,0,0,1-.26-.247.469.469,0,0,1-.078-.26,1.3,1.3,0,0,1,0-.26l.078-.26.273-.781h1.849l.286.885a1.641,1.641,0,0,1,0,.2v.2A.612.612,0,0,1,30.578,49.212Zm-1.562-2.682.651-1.862.651,1.862Z" transform="translate(8.097 13.012)" fill="#fff"/>
    <path id="Path_26" data-name="Path 26" d="M40.23,48.031V46.469l1.679-3.346H40.23a.534.534,0,0,1,.208.208.6.6,0,0,1,.065.273,1.3,1.3,0,0,1,0,.26,3.578,3.578,0,0,1-.143.378l-.534,1.093-1.08-2.226H32.067l-.378,1.419a5.845,5.845,0,0,1,.534-.26,1.679,1.679,0,0,1,.6-.117h.443v4.114a1.94,1.94,0,0,1-.078.586.651.651,0,0,1-.312.364H35.4a1.054,1.054,0,0,1-.312-.443,2,2,0,0,1-.1-.7V44.164a1.38,1.38,0,0,1,.4,0,1.3,1.3,0,0,1,.495.1.547.547,0,0,1,.338.3l.325-1.3a1.028,1.028,0,0,1,.286.234,3.2,3.2,0,0,1,.273.43l1.406,2.6v1.875a1.6,1.6,0,0,1-.091.508.664.664,0,0,1-.312.364h2.6a1.185,1.185,0,0,1-.364-.6A2.37,2.37,0,0,1,40.23,48.031Z" transform="translate(9.576 13.009)" fill="#fff"/>
    <path id="Path_27" data-name="Path 27" d="M43.617,49.108a5.207,5.207,0,0,0,1.5.143H45.7a2.031,2.031,0,0,1-.456-.482l-.234-.391-1.731-2.812L45.31,43.12H43.045a.924.924,0,0,1,.286.234.6.6,0,0,1,.078.3.794.794,0,0,1-.156.43l-.247.312L41.821,45.88v-1.9a1.5,1.5,0,0,1,.091-.469.781.781,0,0,1,.312-.391H39.712a.872.872,0,0,1,.338.443,2.291,2.291,0,0,1,0,.6v4.2a1.471,1.471,0,0,1-.078.469.781.781,0,0,1-.312.364h2.512a.69.69,0,0,1-.312-.325,1.471,1.471,0,0,1-.091-.508V46.531l1.093,1.862A1.614,1.614,0,0,0,43.617,49.108Z" transform="translate(11.981 13.012)" fill="#fff"/>
    <path id="Path_28" data-name="Path 28" d="M46.614,43.55a.937.937,0,0,1,.325-.43H44.453a.859.859,0,0,1,.325.43,3.489,3.489,0,0,1,0,.794v3.723a3.54,3.54,0,0,1,0,.69.872.872,0,0,1-.338.482h2.486a.846.846,0,0,1-.312-.378,2.982,2.982,0,0,1,0-.729V44.266A3.32,3.32,0,0,1,46.614,43.55Z" transform="translate(13.423 13.012)" fill="#fff"/>
    <path id="Path_29" data-name="Path 29" d="M57.364,49.245l.508-1.471a3.814,3.814,0,0,1-.937.456,3.293,3.293,0,0,1-.911.117H54.786L57.52,43.14H53.211l-.482,1.3a3.267,3.267,0,0,1,.755-.338,2.708,2.708,0,0,1,.781-.117h.82L52.3,49.193Z" transform="translate(15.795 13.018)" fill="#fff"/>
    <path id="Path_30" data-name="Path 30" d="M60.386,49.212h2.825a3.058,3.058,0,0,1-.456-.508,3.5,3.5,0,0,1-.312-.716l-1.8-4.869H58.407a1.055,1.055,0,0,1,.273.26.56.56,0,0,1,.078.286,1.2,1.2,0,0,1-.065.325,1.157,1.157,0,0,1,0,.234l-1.3,3.619a6.157,6.157,0,0,1-.273.716,1.849,1.849,0,0,1-.469.638h1.9a1.615,1.615,0,0,1-.26-.247.469.469,0,0,1-.078-.26,1.3,1.3,0,0,1,0-.26l.078-.26.273-.781h1.848l.286.885a1.644,1.644,0,0,1,.065.2v.2A.612.612,0,0,1,60.386,49.212Zm-1.562-2.682.625-1.862.651,1.862Z" transform="translate(17.108 13.012)" fill="#fff"/>
    <path id="Path_31" data-name="Path 31" d="M72.737,49.252l.508-1.471a3.983,3.983,0,0,1-.924.456,3.32,3.32,0,0,1-.924.117H70.16l2.747-5.207h-4.27l-.495,1.3a3.541,3.541,0,0,1,.755-.338,2.864,2.864,0,0,1,.794-.117h.82L67.752,49.2a3.007,3.007,0,0,1-.469-.508,4.166,4.166,0,0,1-.3-.43l-1.2-2.031a1.979,1.979,0,0,0,.911-.794,1.38,1.38,0,0,0,.169-.677,1.5,1.5,0,0,0-.521-1.224,1.874,1.874,0,0,0-1.3-.417H62.05a.872.872,0,0,1,.312.391,2.421,2.421,0,0,1,.065.612v4.218a1.484,1.484,0,0,1-.078.508.7.7,0,0,1-.3.351h2.538a.768.768,0,0,1-.3-.312,1.3,1.3,0,0,1-.1-.56V46.623l1.106,2.083a1.067,1.067,0,0,0,.391.456.989.989,0,0,0,.56.13h.508l1.041-.078h0Zm-7.811-3.515a1.185,1.185,0,0,1-.729.391V44.006h.078a.9.9,0,0,1,.716.3A1.041,1.041,0,0,1,65.2,45a1.094,1.094,0,0,1-.325.742Z" transform="translate(18.737 13.011)" fill="#fff"/>
    <path id="Path_32" data-name="Path 32" d="M70.68,49.254h1.914a1.212,1.212,0,0,1-.26-.247.482.482,0,0,1-.091-.26v-.26l.156-.312.273-.781H74.52l.286.885a.65.65,0,0,1,0,.2.859.859,0,0,1,0,.2.625.625,0,0,1-.377.534h1.028a1.653,1.653,0,0,0-.586,1.211c0,.963.911,1.106,1.51,1.106a1.823,1.823,0,0,0,.456,0l.4-.82a2.33,2.33,0,0,1-.573,0c-.391,0-.937-.208-.69-.872a3.97,3.97,0,0,1,.377-.625h.885a2.916,2.916,0,0,1-.443-.508,3.5,3.5,0,0,1-.312-.716L74.676,43.11H72.463a1.054,1.054,0,0,1,.273.26.7.7,0,0,1,0,.286,1.105,1.105,0,0,1,0,.325,1.8,1.8,0,0,0,0,.234l-1.3,3.619a6.906,6.906,0,0,1-.26.716,1.875,1.875,0,0,1-.482.638Zm2.864-4.582.651,1.862h-1.3Z" transform="translate(21.341 13.009)" fill="#fff"/>
    <path id="Path_33" data-name="Path 33" d="M76,43.134a.7.7,0,0,1,.338.443,1.627,1.627,0,0,1,.065.469v3.983a3.517,3.517,0,0,1-.065.781.755.755,0,0,1-.338.4h2.786a3.111,3.111,0,0,0,2.421-.963,3.176,3.176,0,0,0,.716-2.148,2.812,2.812,0,0,0-.872-2.161,3.254,3.254,0,0,0-2.317-.82Zm4.2,3.046a2.76,2.76,0,0,1-.391,1.575,1.3,1.3,0,0,1-1.133.586h-.56V44.175H78.6a1.367,1.367,0,0,1,1.067.443,2.447,2.447,0,0,1,.508,1.562Z" transform="translate(22.947 13.011)" fill="#fff"/>
    <path id="Path_34" data-name="Path 34" d="M85.792,49.245l.482-1.471a3.982,3.982,0,0,1-.924.456,3.385,3.385,0,0,1-.924.117H83.188l2.747-5.207H81.691l-.495,1.3a3.539,3.539,0,0,1,.755-.338,2.864,2.864,0,0,1,.794-.117h.82L80.78,49.193Z" transform="translate(24.389 13.018)" fill="#fff"/>
    <path id="Path_35" data-name="Path 35" d="M91.045,47.989,89.235,43.12H86.97a1.055,1.055,0,0,1,.273.26.547.547,0,0,1,0,.286,1.108,1.108,0,0,1,0,.325v.234l-1.3,3.619a6.16,6.16,0,0,1-.273.716,2.03,2.03,0,0,1-.469.638h1.9a1.211,1.211,0,0,1-.26-.247.469.469,0,0,1-.078-.26.756.756,0,0,1,0-.26l.078-.26.26-.781h1.862l.286.885a1.636,1.636,0,0,1,.065.2v.2a.6.6,0,0,1-.377.534h2.825a2.6,2.6,0,0,1-.456-.508A3.5,3.5,0,0,1,91.045,47.989Zm-3.619-1.458.625-1.862.651,1.862Z" transform="translate(25.723 13.012)" fill="#fff"/>
    <path id="Path_36" data-name="Path 36" d="M94.867,43.133a1.3,1.3,0,0,1,.351.625,3.01,3.01,0,0,1,0,.586v2.525l-2.76-3.749H90.48a1.913,1.913,0,0,1,.43.625,2.513,2.513,0,0,1,.1.846v3.58a1.862,1.862,0,0,1-.1.664,1.185,1.185,0,0,1-.312.43h1.862a1.055,1.055,0,0,1-.312-.443,1.574,1.574,0,0,1-.117-.651V45.437h0L94.177,48.3a3.02,3.02,0,0,0,1.133.885,2.408,2.408,0,0,0,.9.26h0V44.266a1.874,1.874,0,0,1,.156-.651,1.3,1.3,0,0,1,.312-.495H94.867Z" transform="translate(27.316 13.012)" fill="#fff"/>
    <path id="Path_37" data-name="Path 37" d="M97.724,43.55a.9.9,0,0,1,.312-.43H95.563a.9.9,0,0,1,.312.43,3.492,3.492,0,0,1,0,.794v3.723a2.723,2.723,0,0,1,0,.69.846.846,0,0,1-.325.482h2.473a.807.807,0,0,1-.3-.378,2.332,2.332,0,0,1-.078-.729V44.266a3.137,3.137,0,0,1,.078-.716Z" transform="translate(28.846 13.012)" fill="#fff"/>
    <path id="Path_38" data-name="Path 38" d="M103.864,48.7a3.5,3.5,0,0,1-.312-.716l-1.8-4.869H99.477a1.054,1.054,0,0,1,.273.26.56.56,0,0,1,.078.286,1.2,1.2,0,0,1,0,.325,1.158,1.158,0,0,1-.065.234l-1.3,3.619a6.156,6.156,0,0,1-.273.716,1.848,1.848,0,0,1-.469.638h1.9a1.615,1.615,0,0,1-.26-.247.469.469,0,0,1-.078-.26,1.3,1.3,0,0,1,0-.26l.1-.26.273-.781h1.848l.286.885a1.636,1.636,0,0,1,0,.2s0,.117,0,.2a.612.612,0,0,1-.391.534h2.825A3.058,3.058,0,0,1,103.864,48.7Zm-3.905-2.174.625-1.862.651,1.862Z" transform="translate(29.501 13.012)" fill="#fff"/>
    <path id="Path_39" data-name="Path 39" d="M18.748,55.836l-.872-.091H17.2l2.46-3.515H16.3l-.443.95a1.393,1.393,0,0,1,.521-.26A2.279,2.279,0,0,1,17,52.842h1.12L15.52,56.4h3.905l.495-1.015a2.448,2.448,0,0,1-.677.325,1.992,1.992,0,0,1-.495.13Z" transform="translate(4.696 15.761)" fill="#fff"/>
    <path id="Path_40" data-name="Path 40" d="M23.829,54.082l-1.185-.43c-.378-.13-.586-.3-.612-.495a.378.378,0,0,1,.221-.351,1.3,1.3,0,0,1,.612-.117,2.317,2.317,0,0,1,1.185.286v-.794a1.667,1.667,0,0,0-.443-.091h-.56a2.9,2.9,0,0,0-1.3.247,1.067,1.067,0,0,0-.612.989.911.911,0,0,0,.325.729,2.3,2.3,0,0,0,.716.4c.755.286,1.159.443,1.224.482a.612.612,0,0,1,.273.495.469.469,0,0,1-.312.417,1.575,1.575,0,0,1-.742.143,2.76,2.76,0,0,1-.9-.143,2.6,2.6,0,0,1-.82-.378l.312.911a3.372,3.372,0,0,0,1.237.221,2.734,2.734,0,0,0,1.367-.338,1.3,1.3,0,0,0,.7-1.133.989.989,0,0,0-.208-.6,1.406,1.406,0,0,0-.482-.456Z" transform="translate(6.32 15.718)" fill="#fff"/>
    <path id="Path_41" data-name="Path 41" d="M24.369,51.043a.581.581,0,0,0,0,.82.521.521,0,0,0,.4.169.534.534,0,0,0,.469-.208.534.534,0,0,0,0-.781.56.56,0,0,0-.417-.182A.534.534,0,0,0,24.369,51.043Z" transform="translate(7.315 15.347)" fill="#fff"/>
    <path id="Path_42" data-name="Path 42" d="M25.331,56.153a2.33,2.33,0,0,1,0-.612V52h0a.937.937,0,0,1-.677.169h-.495a.612.612,0,0,1,.312.338,1.419,1.419,0,0,1,0,.4v2.734a1.484,1.484,0,0,1-.065.43.508.508,0,0,1-.286.286h1.549a.482.482,0,0,1-.338-.208Z" transform="translate(7.291 15.691)" fill="#fff"/>
    <path id="Path_43" data-name="Path 43" d="M29.554,52.633a2.044,2.044,0,0,0-1.471-.573,2.265,2.265,0,0,0-1.77.716A2.187,2.187,0,0,0,25.74,54.3a2.1,2.1,0,0,0,.833,1.731,3.007,3.007,0,0,0,1.848.573,2.759,2.759,0,0,0,.651,0,4.215,4.215,0,0,0,.638-.169l.43-.872a2.135,2.135,0,0,1-.729.364,2.863,2.863,0,0,1-.794.117h-.234a1.744,1.744,0,0,1-1.3-.664,1.862,1.862,0,0,1-.351-1.133h3.424A2.07,2.07,0,0,0,29.554,52.633Zm-2.773,1a1.041,1.041,0,0,1,.417-.7,1.44,1.44,0,0,1,1.614,0,.911.911,0,0,1,.378.7Z" transform="translate(7.78 15.709)" fill="#fff"/>
    <path id="Path_44" data-name="Path 44" d="M34,56.6a.951.951,0,0,1-.078-.391V50.62a.3.3,0,0,1-.182.13.7.7,0,0,1-.247,0h-.716a.729.729,0,0,1,.325.351,1.106,1.106,0,0,1,0,.364v1.523a2.447,2.447,0,0,0-.677-.4,1.874,1.874,0,0,0-.7-.13,2.252,2.252,0,0,0-2.278,2.226,2.135,2.135,0,0,0,.833,1.822,2.5,2.5,0,0,0,1.536.469h.469l.573-.833a1.471,1.471,0,0,1-.833.26,1.536,1.536,0,0,1-1.12-.443,1.653,1.653,0,0,1-.508-1.237,1.627,1.627,0,0,1,.443-1.211,1.38,1.38,0,0,1,1.862-.078,1.3,1.3,0,0,1,.4,1.028v2.434h1.2a.625.625,0,0,1-.3-.3Z" transform="translate(8.896 15.275)" fill="#fff"/>
    <path id="Path_45" data-name="Path 45" d="M36.547,55.836l-.872-.091a5.847,5.847,0,0,0-.664,0l2.46-3.515H34.178l-.43.95a1.3,1.3,0,0,1,.521-.26,2.123,2.123,0,0,1,.612-.078h1.133L33.41,56.4h3.905l.495-1.015a2.6,2.6,0,0,1-.664.325A2.122,2.122,0,0,1,36.547,55.836Z" transform="translate(10.095 15.761)" fill="#fff"/>
    <path id="Path_46" data-name="Path 46" d="M37.643,52a.534.534,0,0,0,.417-.169.581.581,0,0,0,0-.82.586.586,0,0,0-.417-.182.534.534,0,0,0-.4.182.581.581,0,0,0,0,.82A.521.521,0,0,0,37.643,52Z" transform="translate(11.199 15.338)" fill="#fff"/>
    <path id="Path_47" data-name="Path 47" d="M38.185,56.153a3.371,3.371,0,0,1,0-.612V52h0a.937.937,0,0,1-.677.169H37a.612.612,0,0,1,.312.338,1.42,1.42,0,0,1,0,.4v2.734a1.484,1.484,0,0,1,0,.43.56.56,0,0,1-.286.286h1.549A.547.547,0,0,1,38.185,56.153Z" transform="translate(11.178 15.691)" fill="#fff"/>
    <path id="Path_48" data-name="Path 48" d="M41.228,52.492h-.677l-.482.807a.742.742,0,0,1,.338-.143,1.587,1.587,0,0,1,.443,0,1.393,1.393,0,0,1,.924.312,1.419,1.419,0,0,1,.443,1.133,1.809,1.809,0,0,1-.521,1.406,1.679,1.679,0,0,1-1.133.378h-.3l-.417-.078V50.67c-.078.117-.221.169-.456.169h-.7a.651.651,0,0,1,.273.3,1.12,1.12,0,0,1,0,.469v4.7a.976.976,0,0,1,0,.338.43.43,0,0,1-.208.247l.768.117a7.93,7.93,0,0,0,.937,0,3.059,3.059,0,0,0,1.992-.612,2.057,2.057,0,0,0,.729-1.627,2.447,2.447,0,0,0-.534-1.653A1.757,1.757,0,0,0,41.228,52.492Z" transform="translate(11.688 15.29)" fill="#fff"/>
    <path id="Path_49" data-name="Path 49" d="M46.113,57.655a.3.3,0,0,1-.1-.182,1.5,1.5,0,0,1,0-.469,1.614,1.614,0,0,1,.312-.417l.43-.612a.833.833,0,0,1-.638-.2.976.976,0,0,1-.169-.651V53.5A1.3,1.3,0,0,0,45.41,52.4a2.083,2.083,0,0,0-1.237-.325h-.612l-.612.937.56-.247a2.252,2.252,0,0,1,.69-.117,1.3,1.3,0,0,1,.56.117.482.482,0,0,1,.325.443.508.508,0,0,1,0,.234.456.456,0,0,1-.117.143,1.562,1.562,0,0,1-.586.247l-1.172.3a1.992,1.992,0,0,0-.586.417,1.107,1.107,0,0,0-.234.716,1.133,1.133,0,0,0,.43.9,1.783,1.783,0,0,0,1.172.378h.456l.56-.69-.377.091h-.338a1.2,1.2,0,0,1-.716-.2.651.651,0,0,1-.26-.56c0-.365.3-.625.911-.768a3.424,3.424,0,0,0,.911-.312v1.458a.885.885,0,0,0,.781.924,1.054,1.054,0,0,0-.364.391,1.133,1.133,0,0,0-.143.573.573.573,0,0,0,.247.495.937.937,0,0,0,.586.2,1,1,0,0,0,.521-.13l.156-.417a1.3,1.3,0,0,1-.6.13A.326.326,0,0,1,46.113,57.655Z" transform="translate(12.804 15.712)" fill="#fff"/>
    <path id="Path_50" data-name="Path 50" d="M53.423,52.235a.456.456,0,0,1,.3.417.7.7,0,0,1,0,.247.845.845,0,0,1-.091.273l-.9,2.226-.82-2.278c-.065-.156-.117-.312-.169-.456a2.82,2.82,0,0,1-.1-.338V52.2H50.4a.391.391,0,0,1,.26.351.677.677,0,0,1,0,.273,2.174,2.174,0,0,1-.078.26l-.9,2.278L48.58,52.444a.534.534,0,0,1,0-.156,1.973,1.973,0,0,1,0-.247h0a.573.573,0,0,1-.247.091H47.5a.872.872,0,0,1,.325.325.855.855,0,0,0,.169.4l1.067,2.76a1.744,1.744,0,0,0,.273.482,1.809,1.809,0,0,0,.69.443l1.3-3.254.911,2.4a1.3,1.3,0,0,0,.4.612l.43.247L54.66,52.2h-1.3Z" transform="translate(14.347 15.704)" fill="#fff"/>
    <path id="Path_51" data-name="Path 51" d="M63.278,56.281l-.885-.091a5.675,5.675,0,0,0-.664,0l2.46-3.515H60.87l-.43.95a1.3,1.3,0,0,1,.521-.26,2.279,2.279,0,0,1,.625-.078h1.12l-2.421,3.346a6.287,6.287,0,0,1-.638-.482,3.359,3.359,0,0,1-.443-.469L57.772,53.9a2.356,2.356,0,0,0,1.08-.625,1.536,1.536,0,0,0,.391-.859,1.5,1.5,0,0,0-.456-1.159,2.057,2.057,0,0,0-1.484-.495H55.129a.547.547,0,0,1,.351.43,4.607,4.607,0,0,1,0,.768v3.567a3.9,3.9,0,0,1-.065.885.482.482,0,0,1-.325.391h1.757a.651.651,0,0,1-.338-.391,3.371,3.371,0,0,1-.078-.885V51.4h.6a1.51,1.51,0,0,1,.846.221.833.833,0,0,1,.391.755,1.146,1.146,0,0,1-.534.989,2.473,2.473,0,0,1-1.08.4l.924,1.211,1.093,1.3a1.445,1.445,0,0,0,.43.417,1.172,1.172,0,0,0,.6.13h4.387l.482-1.015a2.6,2.6,0,0,1-.664.325,2.044,2.044,0,0,1-.625.143Z" transform="translate(16.637 15.316)" fill="#fff"/>
    <path id="Path_52" data-name="Path 52" d="M66.264,52.633a2.07,2.07,0,0,0-1.471-.573,2.291,2.291,0,0,0-1.783.716,2.187,2.187,0,0,0-.56,1.523,2.057,2.057,0,0,0,.833,1.731,3.007,3.007,0,0,0,1.848.573,2.6,2.6,0,0,0,.638,0,3.54,3.54,0,0,0,.638-.169l.443-.872a2.2,2.2,0,0,1-.742.364,2.837,2.837,0,0,1-.781.117h-.234a1.744,1.744,0,0,1-1.3-.664,1.861,1.861,0,0,1-.351-1.133H66.85A2.057,2.057,0,0,0,66.264,52.633Zm-2.773,1a.989.989,0,0,1,.417-.7,1.44,1.44,0,0,1,1.614,0,.911.911,0,0,1,.378.7Z" transform="translate(18.858 15.709)" fill="#fff"/>
    <path id="Path_53" data-name="Path 53" d="M68.948,54.082l-1.185-.43c-.391-.13-.586-.3-.612-.495a.365.365,0,0,1,.221-.351,1.3,1.3,0,0,1,.612-.117,2.317,2.317,0,0,1,1.185.286v-.794a1.784,1.784,0,0,0-.443-.091h-.56a2.9,2.9,0,0,0-1.3.247,1.067,1.067,0,0,0-.612.989.95.95,0,0,0,.312.729,2.6,2.6,0,0,0,.729.4c.755.286,1.159.443,1.224.482a.612.612,0,0,1,.273.495.5.5,0,0,1-.221.443,1.6,1.6,0,0,1-.755.143,2.812,2.812,0,0,1-.9-.143,2.708,2.708,0,0,1-.807-.378l.312.911a3.372,3.372,0,0,0,1.3.221,2.734,2.734,0,0,0,1.3-.338,1.224,1.224,0,0,0,.69-1.133.976.976,0,0,0-.2-.6A1.406,1.406,0,0,0,68.948,54.082Z" transform="translate(19.962 15.718)" fill="#fff"/>
    <path id="Path_54" data-name="Path 54" d="M72.126,55.836l-.872-.091h-.677l2.46-3.515H69.718l-.43.95a1.393,1.393,0,0,1,.521-.26,2.279,2.279,0,0,1,.625-.078h1.12L68.95,56.4h3.905l.482-1.015a2.6,2.6,0,0,1-.664.325,2.044,2.044,0,0,1-.547.13Z" transform="translate(20.819 15.761)" fill="#fff"/>
    <path id="Path_55" data-name="Path 55" d="M74.9,52.071a2.408,2.408,0,0,0-1.861.729,2.135,2.135,0,0,0-.6,1.536,2.187,2.187,0,0,0,.612,1.562,2.343,2.343,0,0,0,1.757.69,2.408,2.408,0,0,0,1.692-.664,2.213,2.213,0,0,0,0-3.267,2.343,2.343,0,0,0-1.6-.586Zm1.028,3.437A1.3,1.3,0,0,1,74.887,56h-.078a1.3,1.3,0,0,1-1.015-.521,2.057,2.057,0,0,1-.4-1.3,1.523,1.523,0,0,1,.521-1.237,1.388,1.388,0,0,1,1.966.247,1.926,1.926,0,0,1,.391,1.211A1.614,1.614,0,0,1,75.929,55.507Z" transform="translate(21.872 15.712)" fill="#fff"/>
    <path id="Path_56" data-name="Path 56" d="M82.174,52.226a.456.456,0,0,1,.3.417,1.207,1.207,0,0,1,0,.247.287.287,0,0,1-.1.273l-.9,2.226-.807-2.278a1.242,1.242,0,0,0-.182-.456,2.792,2.792,0,0,1-.091-.338v-.13H79.154a.378.378,0,0,1,.26.351.99.99,0,0,1,0,.273,1.77,1.77,0,0,0-.078.26l-.9,2.278-1.185-2.877a.664.664,0,0,1,0-.156V52.07h0a.56.56,0,0,1-.26.091H76.16a.781.781,0,0,1,.325.325.818.818,0,0,0,.182.4l1.054,2.76a1.745,1.745,0,0,0,.273.482,1.914,1.914,0,0,0,.69.443l1.3-3.254.911,2.4a1.3,1.3,0,0,0,.391.612l.443.247,1.849-4.452h-1.3Z" transform="translate(22.995 15.713)" fill="#fff"/>
    <path id="Path_57" data-name="Path 57" d="M83.185,56.153a2.328,2.328,0,0,1,0-.612V52h0a.911.911,0,0,1-.664.169H82a.547.547,0,0,1,.3.338,1.419,1.419,0,0,1,0,.4v2.734a1.146,1.146,0,0,1,0,.43.5.5,0,0,1-.273.286h1.536a.547.547,0,0,1-.378-.208Z" transform="translate(24.757 15.691)" fill="#fff"/>
    <path id="Path_58" data-name="Path 58" d="M82.229,51.042a.581.581,0,0,0,0,.82.547.547,0,0,0,.417.169.573.573,0,0,0,.417-.169.6.6,0,0,0,.169-.417.56.56,0,0,0-.182-.4.534.534,0,0,0-.4-.182.56.56,0,0,0-.417.182Z" transform="translate(24.775 15.347)" fill="#fff"/>
    <path id="Path_59" data-name="Path 59" d="M87.424,52.633a2.083,2.083,0,0,0-1.471-.573,2.291,2.291,0,0,0-1.783.716,2.187,2.187,0,0,0-.56,1.523,2.057,2.057,0,0,0,.833,1.731,2.994,2.994,0,0,0,1.836.573,2.693,2.693,0,0,0,.651,0,3.539,3.539,0,0,0,.638-.169l.456-.937a2.2,2.2,0,0,1-.742.364,2.863,2.863,0,0,1-.794.117h-.221a1.744,1.744,0,0,1-1.3-.664,1.861,1.861,0,0,1-.351-1.133h3.411a2.057,2.057,0,0,0-.6-1.549Zm-2.773,1a.989.989,0,0,1,.417-.7,1.419,1.419,0,0,1,1.6,0,.924.924,0,0,1,.391.7Z" transform="translate(25.243 15.709)" fill="#fff"/>
    <path id="Path_60" data-name="Path 60" d="M48.823,48.4a.872.872,0,0,1-.273.377h2.265a.911.911,0,0,1-.26-.325,1.471,1.471,0,0,1-.065-.482V44.76h0a.781.781,0,0,1-.273.1H48.55a.755.755,0,0,1,.273.351,1.3,1.3,0,0,1,0,.4v2.317a1.55,1.55,0,0,1,0,.469Z" transform="translate(14.663 13.507)" fill="#fff"/>
    <path id="Path_61" data-name="Path 61" d="M50.2,44.6a.924.924,0,0,0,0-1.3.872.872,0,0,0-.612-.26.859.859,0,0,0-.625.26.911.911,0,0,0-.26.638.859.859,0,0,0,.26.625.807.807,0,0,0,.625.26A.794.794,0,0,0,50.2,44.6Z" transform="translate(14.709 12.988)" fill="#fff"/>
  </g>
</svg>
